<svg width="316" height="151" viewBox="0 0 316 151" fill="none" xmlns="http://www.w3.org/2000/svg">
<g clip-path="url(#clip0_8003_367)">
<g clip-path="url(#clip1_8003_367)">
<mask id="mask0_8003_367" style="mask-type:luminance" maskUnits="userSpaceOnUse" x="12" y="0" width="292" height="151">
<path d="M303.683 0.696167H12.3164V150.062H303.683V0.696167Z" fill="white"/>
</mask>
<g mask="url(#mask0_8003_367)">
<path d="M106.401 21.1466H68.873C68.873 21.1466 70.7353 15.9238 76.3771 18.9647C76.9726 16.5 79.8017 16.9693 79.8017 16.9693C80.283 5.60286 96.4387 3.92006 97.6906 16.6758C103.091 10.8065 109.195 15.3702 106.401 21.1466Z" fill="#E5E3E1"/>
<path d="M71.8259 55.6281H22.0674C22.0674 55.6281 23.202 45.8913 33.4536 49.6085C34.2363 44.6004 38.3056 44.0136 39.401 45.5C42.4921 35.5619 55.561 30.3186 61.5083 45.1087C67.6124 41.0399 71.1036 48.5906 68.0278 53.0124C74.46 49.9608 71.8259 55.6281 71.8259 55.6281Z" fill="#E5E3E1"/>
<path d="M288.316 114.832C288.316 114.832 290.875 114.856 291.942 111.058C293.008 107.261 295.781 110.673 298.233 107.688C300.685 104.702 302.818 101.503 303.138 103.636C303.458 105.769 302.818 115.684 300.152 118.776C297.487 121.869 301.538 126.241 298.446 128.692C295.355 131.144 292.475 129.546 291.409 131.998C290.342 134.45 279.04 141.488 272.003 137.542C264.966 133.597 281.173 114.939 288.316 114.832Z" fill="#678742"/>
<path d="M270.297 127.354C270.297 127.354 266.885 118.35 269.657 116.431C272.429 114.511 273.922 113.736 273.709 110.125C273.495 106.515 275.697 105.449 279.127 104.916C282.559 104.383 279.682 98.9446 283.733 97.7721C287.783 96.5989 287.25 98.6248 289.489 95.2131C291.728 91.8007 293.114 89.7748 295.034 94.2533C296.953 98.7311 297.486 103.529 293.541 105.875C289.596 108.221 289.703 110.459 291.516 113.765C293.328 117.07 290.236 122.302 286.503 122.886C282.773 123.468 279.359 124.747 280.532 129.225C281.707 133.704 275.042 138.822 271.23 136.476C267.418 134.13 270.297 127.354 270.297 127.354Z" fill="#99B746"/>
<path d="M271.231 131.145L271.193 131.143C271.017 131.123 270.892 130.963 270.912 130.788C270.926 130.676 272.324 119.494 279.93 114.439C287.306 109.538 289.58 98.8808 289.603 98.773C289.639 98.5993 289.811 98.4852 289.981 98.5256C290.154 98.561 290.266 98.7304 290.229 98.9034C290.206 99.0126 287.876 109.926 280.284 114.971C272.928 119.861 271.561 130.754 271.548 130.862C271.529 131.025 271.39 131.145 271.231 131.145Z" fill="#678742"/>
<path d="M19.8959 129.504C19.8959 129.504 14.6711 117.68 22.3482 112.299C30.0253 106.92 34.8234 111.184 34.8234 111.184C34.8234 111.184 34.93 105.32 38.4488 105.747C41.9674 106.173 42.3939 109.266 42.3939 109.266C42.3939 109.266 47.4055 99.2428 52.6301 100.096C57.8545 100.948 59.134 108.625 59.134 108.625C59.134 108.625 64.8213 97.9045 73.8622 102.476C82.903 107.047 80.0328 114.774 80.0328 114.774C80.0328 114.774 84.8312 113.21 87.1768 118.435C89.5231 123.659 82.5918 133.923 82.5918 133.923H16.9104C16.9104 133.923 15.6308 127.244 19.8959 129.504Z" fill="#99B746"/>
<path d="M15.2036 138.264H84.4492C84.4492 138.264 87.1763 126.571 83.1782 123.996C79.1796 121.42 75.8216 125.668 75.8216 125.668C75.8216 125.668 76.5142 121.846 73.7418 120.034C70.9694 118.221 67.4507 120.674 67.4507 120.674C67.4507 120.674 67.8774 113.104 61.9058 112.357C55.9351 111.611 53.0564 118.328 53.0564 118.328C53.0564 118.328 50.2836 112.038 44.6327 113.743C38.9814 115.449 40.1543 123.765 40.1543 123.765C40.1543 123.765 39.5144 118.613 33.6503 121.35C27.7857 124.086 28.2122 131.424 28.2122 131.424C28.2122 131.424 28.9584 125.195 22.5609 123.788C16.1634 122.379 8.91271 130.693 15.2036 138.264Z" fill="#678742"/>
<path d="M45.3574 138.264H89.9735C89.9735 138.264 91.7308 130.73 89.1548 129.071C86.578 127.411 84.4146 130.148 84.4146 130.148C84.4146 130.148 84.8605 127.687 83.0748 126.519C81.2885 125.35 79.0208 126.931 79.0208 126.931C79.0208 126.931 79.2959 122.054 75.4489 121.572C71.6011 121.091 69.7467 125.419 69.7467 125.419C69.7467 125.419 67.9604 121.366 64.319 122.465C60.6782 123.564 61.4338 128.922 61.4338 128.922C61.4338 128.922 61.0213 125.604 57.243 127.366C53.4641 129.128 53.7392 133.857 53.7392 133.857C53.7392 133.857 54.2197 129.844 50.0979 128.936C45.9757 128.03 41.3042 133.386 45.3574 138.264Z" fill="#37664A"/>
<path d="M175.78 65.289L174.29 69.601L125.802 15.3703L77.3154 69.601L75.8184 65.289L125.802 8.55048L175.78 65.289Z" fill="#89CFF0"/>
<path d="M277.08 65.2889H175.781L168.814 57.3817L159.282 46.5575L148.022 33.7756L138.489 22.9506L129.424 12.6639L125.803 8.55035H215.087L219.585 12.6639L230.819 22.9506L242.648 33.7756L256.614 46.5575L268.443 57.3817L277.08 65.2889Z" fill="#D8EFFA"/>
<path d="M174.29 69.601H277.078V65.2877H175.78L174.29 69.601Z" fill="#89CFF0"/>
<path d="M267.82 69.601V135.175H174.29V69.601H267.82Z" fill="#BAB4A8"/>
<path d="M80.9365 65.5513V135.175H174.29V69.601L125.802 15.3702L80.9365 65.5513Z" fill="#E5E3E1"/>
<path d="M139.103 94.3979V135.175H109.118V94.3979C109.118 86.1193 115.83 79.4086 124.114 79.4086C132.393 79.4086 139.103 86.1193 139.103 94.3979Z" fill="#918E88"/>
<path d="M124.431 79.412V135.177C124.431 135.355 124.289 135.497 124.112 135.497C123.935 135.497 123.793 135.355 123.793 135.177V79.412C123.9 79.405 124.006 79.405 124.112 79.405C124.218 79.405 124.325 79.405 124.431 79.412Z" fill="#54514C"/>
<path d="M121.274 106.387V113.104C121.274 113.455 120.986 113.743 120.634 113.743C120.276 113.743 119.994 113.455 119.994 113.104V106.387C119.994 106.034 120.276 105.747 120.634 105.747C120.986 105.747 121.274 106.034 121.274 106.387Z" fill="#54514C"/>
<path d="M127.908 106.387V113.104C127.908 113.455 127.62 113.743 127.267 113.743C126.916 113.743 126.628 113.455 126.628 113.104V106.387C126.628 106.034 126.916 105.747 127.267 105.747C127.62 105.747 127.908 106.034 127.908 106.387Z" fill="#54514C"/>
<path d="M151.739 121.35H142.463V84.8751H151.739V121.35Z" fill="#918E88"/>
<path d="M162.988 121.35H153.711V84.8751H162.988V121.35Z" fill="#918E88"/>
<path d="M93.3609 121.35H84.084V84.8751H93.3609V121.35Z" fill="#918E88"/>
<path d="M104.61 121.35H95.334V84.8751H104.61V121.35Z" fill="#918E88"/>
<path d="M80.9365 65.5511V69.6007L125.799 19.2744L174.29 74.0793V69.6007L125.802 15.3701L80.9365 65.5511Z" fill="#BAB4A8"/>
<path d="M261.723 69.6008V74.0793H174.29V69.6008H261.723Z" fill="#918E88"/>
<path d="M185.592 69.601V135.175H250.021V69.601H185.592Z" fill="#918E88"/>
<path d="M265.456 136.455V136.985C265.456 137.696 264.879 138.264 264.176 138.264H76.4132C75.7094 138.264 75.1338 137.696 75.1338 136.985V136.455C75.1338 135.751 75.7094 135.175 76.4132 135.175H264.176C264.879 135.175 265.456 135.751 265.456 136.455Z" fill="#BAB4A8"/>
<path d="M219.585 12.6639H129.424L125.803 8.55042H215.087L219.585 12.6639Z" fill="#89CFF0"/>
<path d="M242.649 33.7755H148.022L138.489 22.9506H230.819L242.649 33.7755Z" fill="#89CFF0"/>
<path d="M268.443 57.3817H168.814L159.282 46.5575H256.614L268.443 57.3817Z" fill="#89CFF0"/>
<path d="M169.083 5.51865V40.3863L158.348 26.2908V0.872131L169.083 5.51865Z" fill="white"/>
<path d="M180.898 5.51862V40.3862H169.083V5.51862H180.898Z" fill="#D8D5CE"/>
<path d="M157.096 0.868652H171.048L182.25 6.06523H169.08L157.096 0.868652Z" fill="#918E88"/>
<path d="M182.247 6.06525V12.5385H169.083V6.06525H182.247Z" fill="#BAB4A8"/>
<path d="M169.083 6.06524V12.5385L157.094 6.85916V0.872192L169.083 6.06524Z" fill="#D8D5CE"/>
<path d="M204.56 65.2875H192.383L184.985 57.3818H197.048L204.56 65.2875Z" fill="#C4E7F7"/>
<path d="M204.81 65.5513H192.63L192.383 65.2875H204.56L204.81 65.5513Z" fill="#C8332D"/>
<path d="M186.764 46.5576H174.857L169.083 40.3864H180.898L186.764 46.5576Z" fill="#C4E7F7"/>
<path d="M197.049 57.3817H184.986L174.857 46.5575H186.764L197.049 57.3817Z" fill="#89CFF0"/>
<path d="M103.091 141.135C103.091 142.72 90.0688 144.005 74.0059 144.005C57.9423 144.005 44.9199 142.72 44.9199 141.135C44.9199 139.55 57.9423 138.264 74.0059 138.264C90.0688 138.264 103.091 139.55 103.091 141.135Z" fill="#E5E3E1"/>
<path d="M86.5904 38.5028C86.6138 38.3717 88.6404 38.7233 88.88 34.3249C89.1197 29.9265 85.2018 30.2866 85.2018 30.2866C85.2018 30.2866 84.2015 27.3676 80.9627 27.3676C77.7246 27.3676 76.3778 28.8873 76.3778 28.8873C76.3778 28.8873 74.4588 26.4346 70.0341 29.3664C65.6086 32.299 65.7157 36.8838 67.7947 39.6562C69.8739 42.4285 69.0743 43.3876 68.0613 44.4544C67.0483 45.5205 64.8091 53.1441 72.966 50.7447C81.1229 48.346 81.0165 44.039 80.6961 39.2882C80.3765 34.5383 86.5904 38.5028 86.5904 38.5028Z" fill="#41277A"/>
<path d="M77.6806 45.3602C77.6806 45.3602 78.5899 44.8271 78.8565 43.6278C79.123 42.4284 78.6963 40.4556 78.6431 39.9757C78.5899 39.4958 78.0832 38.7764 78.0832 38.7764C78.0832 38.7764 76.377 38.9097 76.377 37.2835C76.377 35.6575 77.3636 35.0181 77.8698 35.2307C78.3766 35.444 78.4028 35.9771 78.8296 35.6843C79.2563 35.3909 78.6963 34.911 79.1762 33.8718C79.6561 32.832 81.6821 31.1257 82.8546 31.259C84.0277 31.3923 84.2673 32.1124 84.2673 32.1124C84.2673 32.1124 86.2932 32.4591 86.7199 35.0974C87.1467 37.7364 85.8934 41.7883 85.2008 42.1349C84.5076 42.4815 84.0809 42.4815 84.0809 42.4815C84.0809 42.4815 84.0547 44.2671 84.241 44.7208C84.4275 45.1737 85.1597 45.3878 85.1597 45.3878C85.1597 45.3878 85.8134 56.2361 82.588 54.5164C79.3627 52.7974 77.6806 45.3602 77.6806 45.3602Z" fill="#FFB2A8"/>
<path d="M88.0832 134.605C88.1605 135.366 88.96 139.646 88.7233 140.165C88.4801 140.683 87.482 141.482 86.3174 141.642C85.1598 141.802 82.4406 141.603 82.2811 140.881C82.2102 140.561 82.6391 139.211 83.1317 137.701C83.7393 135.833 84.4432 133.729 84.3985 133.082C84.3538 132.397 84.1362 128.975 83.9697 126.3C83.8548 124.458 83.7584 122.968 83.7584 122.968L89.798 122.571C89.798 122.571 89.216 124.477 88.7233 126.365C88.3909 127.682 88.096 128.988 88.0832 129.647C88.0513 130.804 88.0195 132.481 88.0386 133.607C88.0449 134.042 88.0577 134.393 88.0832 134.605Z" fill="#FFB2A8"/>
<path d="M88.7233 140.165C88.4801 140.683 87.482 141.482 86.3174 141.642C85.1598 141.802 82.4406 141.603 82.2811 140.881C82.2102 140.561 82.6391 139.211 83.1317 137.701C83.3621 138.481 84.6033 139.325 85.8446 138.801C87.0788 138.283 86.759 133.651 88.0386 133.607C88.0449 134.042 88.0577 134.393 88.0832 134.605C88.1605 135.366 88.96 139.646 88.7233 140.165Z" fill="#231547"/>
<path d="M72.0061 121.17C72.0061 121.17 71.6609 122.629 71.2001 124.497C70.7911 126.135 70.2985 128.091 69.876 129.647C69.3195 131.682 68.7566 133.351 68.4171 134.656C68.1931 135.475 68.0592 136.146 68.0592 136.683C68.0592 138.072 68.9671 139.243 68.0592 139.934C67.1567 140.631 57.8231 141.482 57.6629 139.934C57.5034 138.392 58.6801 137.694 60.4905 136.952C60.7529 136.844 61.0278 136.69 61.322 136.504C63.0368 135.418 65.084 133.152 65.4491 131.835C65.7178 130.861 65.9219 126.294 66.0374 123.032C66.1013 121.1 66.1395 119.622 66.1395 119.622L72.0061 121.17Z" fill="#FFB2A8"/>
<path d="M66.1392 119.622L72.0058 121.17C72.0058 121.17 71.6606 122.629 71.1998 124.497C69.3575 124.042 67.6044 123.537 66.0371 123.032C66.101 121.1 66.1392 119.622 66.1392 119.622Z" fill="#F26173"/>
<path d="M89.7974 122.571C89.7974 122.571 89.2154 124.477 88.7227 126.365C87.3341 126.391 85.7222 126.378 83.9691 126.3C83.8543 124.458 83.7578 122.968 83.7578 122.968L89.7974 122.571Z" fill="#F26173"/>
<path d="M67.7217 79.6134C67.7217 79.6134 68.7538 86.0109 68.1407 86.3305C67.5275 86.6503 66.9143 84.8378 66.6478 85.3707C66.3812 85.9045 66.1949 89.0228 65.7681 89.2361C65.3414 89.4494 64.675 88.7562 64.4354 87.53C64.1951 86.3043 64.5503 84.1714 64.7189 83.5852C64.8884 82.9989 65.688 80.7327 65.688 79.907C65.688 79.0805 67.509 78.1753 67.7217 79.6134Z" fill="#FFB2A8"/>
<path d="M70.3535 72.096C70.3535 72.096 68.8606 80.2266 68.541 80.4662C68.2212 80.7065 65.327 80.5194 65.1214 79.9863C64.9158 79.4533 65.8486 71.4036 65.8486 71.4036L70.3535 72.096Z" fill="#41277A"/>
<path d="M110.098 58.3953C110.098 58.3953 112.551 59.6217 113.697 59.8344C114.843 60.0477 117.483 59.168 117.562 59.8344C117.642 60.5006 115.27 60.7679 115.963 61.194C116.656 61.6207 117.989 62.0736 119.082 62.3139C120.175 62.5535 120.442 62.6336 120.468 63.0065C120.495 63.38 119.002 66.1254 118.255 65.9921C117.509 65.8589 112.898 63.8599 111.938 63.0603C110.978 62.26 109.192 61.4073 109.192 61.4073L110.098 58.3953Z" fill="#FFB2A8"/>
<path d="M104.447 54.8496C104.572 54.9978 106.712 56.183 108.072 57.0087C109.432 57.8352 111.218 58.2882 111.244 58.6087C111.271 58.9283 110.284 62.5002 109.725 62.6065C109.165 62.7136 103.22 60.1277 102.474 59.0878C101.728 58.0486 103.861 54.157 104.447 54.8496Z" fill="#41277A"/>
<path d="M94.8775 122.373C94.7172 124.612 92.4787 123.652 90.4761 124.368C88.4799 125.086 83.1188 124.445 82.7219 124.368C82.3256 124.292 83.4385 119.008 83.4385 116.212C83.4385 113.416 83.605 100.538 83.4385 98.7792C83.2854 97.0198 80.9624 83.668 80.9624 83.668C80.9624 83.668 76.8871 98.619 76.5674 100.622C76.2477 102.618 75.5247 120.689 75.4418 122.45C75.3844 123.8 73.4903 124.062 71.3537 123.358C70.7008 123.147 70.0231 122.846 69.3639 122.45C66.5682 120.774 65.2058 121.329 64.8087 121.093C64.4125 120.85 65.4489 117.728 65.7685 112.93C66.0883 108.132 70.2465 82.9449 71.2836 78.6273C72.3263 74.3089 75.4418 66.3117 75.4418 66.3117L89.9196 65.5121C89.9196 65.5121 93.1181 71.2701 93.7582 77.1876C94.3976 83.1051 93.1181 95.7404 92.7983 100.135C92.4787 104.537 95.0376 120.134 94.8775 122.373Z" fill="#41277A"/>
<path d="M103.514 59.2622C102.554 60.3688 101.435 58.9545 99.4326 58.4754C97.4364 57.9955 91.6017 53.9969 91.6017 53.9969C91.6017 53.9969 91.5699 54.4577 91.5061 55.1934C91.4352 56.0759 91.3267 57.3617 91.1991 58.7185C91.058 60.2149 91.4352 62.1473 91.7556 63.6571L91.762 63.6635V63.6698C91.9731 64.6552 92.1582 65.4547 92.1582 65.8319C92.1582 66.7917 90.0792 66.6322 88.3197 67.1886C86.5603 67.7515 83.2853 67.9946 81.2828 67.3544C80.2259 67.0171 78.5685 67.3247 77.1224 67.6316C75.8287 67.9066 74.7031 68.1817 74.3288 67.9946C73.5221 67.5912 74.0857 65.5121 74.2452 64.0732C74.4053 62.6335 73.9255 59.9973 73.6887 59.6776L73.644 59.7031C73.2726 60.4006 71.4239 71.5579 70.8865 72.5496C70.3237 73.5859 67.2083 73.1125 66.1655 72.5496C65.1284 71.9867 65.2886 69.3506 65.1284 67.1886C64.9689 65.0322 67.4443 53.517 68.9677 49.6785C70.4896 45.8401 77.6811 45.3602 77.6811 45.3602C77.6811 45.3602 82.0058 52.1546 82.882 52.3977C83.7581 52.6408 84.9866 45.3602 84.9866 45.3602C84.9866 45.3602 91.6783 46.3965 94.4804 47.3563C97.2762 48.3161 104.551 54.24 104.794 55.0332C105.037 55.8392 104.474 58.155 103.514 59.2622Z" fill="#FC4254"/>
<path d="M73.6855 59.9944C73.5196 59.9944 73.3792 59.8661 73.3672 59.6974L72.9667 54.1797C72.9539 54.0039 73.0864 53.8507 73.263 53.838C73.4388 53.8274 73.5919 53.9571 73.6046 54.1336L74.0045 59.6513C74.0172 59.8278 73.8853 59.9809 73.7089 59.9936L73.6855 59.9944Z" fill="#BA153D"/>
<path d="M91.5994 54.3165C91.4916 54.3165 91.3859 54.2619 91.3257 54.1628L89.7258 51.5237C89.6344 51.3727 89.6833 51.1756 89.8336 51.0842C89.986 50.9935 90.1816 51.0409 90.273 51.1919L91.873 53.831C91.9645 53.982 91.9155 54.1791 91.7653 54.2705L91.5994 54.3165Z" fill="#BA153D"/>
<path d="M74.3288 67.9947C74.0092 67.8344 73.9043 67.4113 73.905 66.869C73.9057 66.0432 74.1488 64.9416 74.2452 64.0733C74.2672 63.8734 74.2772 63.6508 74.2772 63.4147C74.2772 62.2048 74.0156 60.6368 73.81 59.9698C73.9326 59.918 74.0148 59.7919 74.0042 59.6515L73.749 56.1235C73.8192 56.1633 73.9028 56.2511 74.0021 56.3957C74.0021 56.3957 75.9281 60.2342 79.6 60.3943C79.7226 60.4001 79.8417 60.4022 79.9565 60.4022C81.5692 60.4022 82.4638 59.8995 83.0706 59.3963C83.6774 58.893 83.9964 58.3897 84.4592 58.3897C84.4933 58.3897 84.5287 58.3925 84.5649 58.3983C85.0483 58.4698 85.8204 58.6088 86.6802 58.6088C87.6634 58.6088 88.7614 58.4273 89.6765 57.7589C90.6874 57.0231 91.2247 55.9549 91.5061 55.1935C91.4352 56.0761 91.3268 57.3619 91.1992 58.7187C91.1779 58.9405 91.1687 59.1723 91.1687 59.4112C91.1687 60.7793 91.4827 62.3713 91.7556 63.6572C91.6592 63.5225 90.9178 62.4607 90.2394 62.3139C89.987 62.2579 88.8975 62.2217 87.4606 62.2217C84.7797 62.2217 80.8887 62.348 78.9606 62.7102C76.0046 63.273 74.3288 65.0324 74.3288 67.9947Z" fill="#CA2043"/>
<path d="M73.8098 59.9697C73.7658 59.8271 73.724 59.7258 73.6885 59.6776L73.6439 59.7031C73.5191 58.795 73.203 56.0978 73.6645 56.0978C73.69 56.0978 73.7183 56.1064 73.7488 56.1234L74.0039 59.6513C74.0146 59.7917 73.9324 59.9179 73.8098 59.9697Z" fill="#BA153D"/>
<path d="M80.9621 83.6681C80.9621 83.6681 76.8869 98.6192 76.5673 100.622C76.2475 102.618 75.5245 120.689 75.4415 122.45C75.3841 123.8 73.49 124.062 71.3535 123.358C72.7733 115.976 73.3497 101.44 73.4198 100.698C73.5027 99.8476 72.8053 99.0991 73.4198 98.3505C74.0401 97.6084 78.5633 82.9968 78.3776 81.8895C78.333 81.6464 78.1863 81.4231 77.975 81.2183C77.5525 80.8213 77.802 80.1175 78.384 80.1175H80.483L80.9621 83.6681Z" fill="#231547"/>
<path d="M68.0592 139.934C67.1567 140.631 57.8231 141.482 57.6629 139.934C57.5034 138.392 58.6801 137.695 60.4905 136.952C60.7529 136.844 61.0278 136.69 61.322 136.504C62.2563 136.773 63.6514 137.068 64.8281 136.921C66.6641 136.703 66.2423 134.374 68.4171 134.656C68.1931 135.475 68.0592 136.146 68.0592 136.683C68.0592 138.072 68.9671 139.243 68.0592 139.934Z" fill="#231547"/>
<path d="M80.2832 40.5223C80.2832 40.5223 81.2827 41.682 82.2417 42.0413C83.2016 42.4014 84.0812 42.4816 84.0812 42.4816V44.7605C84.0812 44.7605 80.6426 42.921 80.2832 40.5223Z" fill="#F26173"/>
<path d="M73.4217 38.9033C73.3388 38.9033 73.258 38.8601 73.214 38.7836C70.1872 33.5459 76.1679 28.7462 76.2289 28.6987C76.3338 28.6165 76.4834 28.6342 76.5656 28.7384C76.6478 28.8425 76.6301 28.9929 76.5259 29.0751C76.4685 29.1204 70.8117 33.667 73.6295 38.5432C73.6954 38.658 73.6563 38.8048 73.5415 38.8707L73.4217 38.9033Z" fill="#231547"/>
<path d="M258.888 33.7756H192.267C190.701 33.7756 189.431 35.0451 189.431 36.6109V136.498C189.431 138.064 190.701 139.334 192.267 139.334H258.888C260.454 139.334 261.724 138.064 261.724 136.498V36.6109C261.724 35.0451 260.454 33.7756 258.888 33.7756Z" fill="#EFEFEF"/>
<path d="M218.067 62.0041H199.448C198.273 62.0041 197.321 62.9561 197.321 64.1306V82.7485C197.321 83.9232 198.273 84.8752 199.448 84.8752H218.067C219.241 84.8752 220.193 83.9232 220.193 82.7485V64.1306C220.193 62.9561 219.241 62.0041 218.067 62.0041Z" fill="white"/>
<path d="M197.322 45.7706H254.74C255.093 45.7706 255.38 45.4843 255.38 45.1306C255.38 44.7776 255.093 44.4912 254.74 44.4912H197.322C196.968 44.4912 196.682 44.7776 196.682 45.1306C196.682 45.4843 196.968 45.7706 197.322 45.7706Z" fill="#BAB4A8"/>
<path d="M254.74 53.9276H197.322C196.968 53.9276 196.682 54.2139 196.682 54.567C196.682 54.9206 196.968 55.207 197.322 55.207H254.74C255.093 55.207 255.38 54.9206 255.38 54.567C255.38 54.2139 255.093 53.9276 254.74 53.9276Z" fill="#BAB4A8"/>
<path d="M254.739 63.3636H226.031C225.677 63.3636 225.391 63.6501 225.391 64.003C225.391 64.3568 225.677 64.6432 226.031 64.6432H254.739C255.093 64.6432 255.38 64.3568 255.38 64.003C255.38 63.6501 255.093 63.3636 254.739 63.3636Z" fill="#BAB4A8"/>
<path d="M254.739 72.7999H226.031C225.677 72.7999 225.391 73.0862 225.391 73.4393C225.391 73.7929 225.677 74.0793 226.031 74.0793H254.739C255.093 74.0793 255.38 73.7929 255.38 73.4393C255.38 73.0862 255.093 72.7999 254.739 72.7999Z" fill="#BAB4A8"/>
<path d="M254.739 82.2361H226.031C225.677 82.2361 225.391 82.5226 225.391 82.8755C225.391 83.2293 225.677 83.5157 226.031 83.5157H254.739C255.093 83.5157 255.38 83.2293 255.38 82.8755C255.38 82.5226 255.093 82.2361 254.739 82.2361Z" fill="#BAB4A8"/>
<path d="M254.74 91.6724H197.322C196.968 91.6724 196.682 91.9588 196.682 92.3118C196.682 92.6655 196.968 92.9518 197.322 92.9518H254.74C255.093 92.9518 255.38 92.6655 255.38 92.3118C255.38 91.9588 255.093 91.6724 254.74 91.6724Z" fill="#BAB4A8"/>
<path d="M254.74 101.108H197.322C196.968 101.108 196.682 101.394 196.682 101.748C196.682 102.102 196.968 102.388 197.322 102.388H254.74C255.093 102.388 255.38 102.102 255.38 101.748C255.38 101.394 255.093 101.108 254.74 101.108Z" fill="#BAB4A8"/>
<path d="M238.906 109.745H197.322C196.968 109.745 196.682 110.031 196.682 110.385C196.682 110.739 196.968 111.025 197.322 111.025H238.906C239.259 111.025 239.546 110.739 239.546 110.385C239.546 110.031 239.259 109.745 238.906 109.745Z" fill="#BAB4A8"/>
<path d="M223.959 127.288L220.415 117.933C220.292 117.607 219.931 117.44 219.602 117.557L203.228 123.362C202.884 123.483 202.712 123.865 202.847 124.203L206.531 133.414C206.658 133.731 207.012 133.893 207.336 133.779L223.57 128.119C223.911 128.001 224.086 127.625 223.959 127.288Z" fill="white"/>
<path d="M207.487 33.699C207.353 36.5075 206.72 38.3051 205.536 39.194C205.158 39.4755 204.78 39.5783 204.43 39.5783C203.642 39.5783 202.964 39.0537 202.689 38.8361C202.407 38.6249 202.357 38.2215 202.573 37.9401C202.79 37.6651 203.194 37.614 203.469 37.8316C204.269 38.4455 204.537 38.3434 204.768 38.1705C205.613 37.5311 206.098 36.0085 206.208 33.6409C206.272 32.2594 206.131 30.5446 205.088 30.2314C204.723 30.1165 204.531 30.2123 204.404 30.3015C203.694 30.8261 203.412 32.7073 203.399 33.7756H202.119V33.7692C202.119 33.424 202.189 30.3398 203.642 29.2716C204.166 28.8944 204.793 28.798 205.466 29.0029C206.931 29.4509 207.609 31.0309 207.487 33.699Z" fill="#41277A"/>
<path d="M220.455 33.699C220.326 36.5075 219.687 38.3051 218.503 39.194C218.132 39.4755 217.755 39.5783 217.403 39.5783C216.61 39.5783 215.938 39.0537 215.657 38.8361C215.375 38.6249 215.324 38.2215 215.541 37.9401C215.758 37.6651 216.162 37.614 216.443 37.8316C217.237 38.4455 217.512 38.3434 217.735 38.1705C218.58 37.5311 219.066 36.0085 219.176 33.6409C219.239 32.2594 219.098 30.5446 218.062 30.2314C217.691 30.1165 217.499 30.2123 217.371 30.3015C216.661 30.8261 216.38 32.7073 216.367 33.7756H215.087V33.7692C215.093 33.424 215.157 30.3398 216.616 29.2716C217.134 28.8944 217.761 28.798 218.433 29.0029C219.899 29.4509 220.576 31.0309 220.455 33.699Z" fill="#41277A"/>
<path d="M233.423 33.699C233.294 36.5075 232.662 38.3051 231.478 39.194C231.1 39.4755 230.723 39.5783 230.371 39.5783C229.578 39.5783 228.906 39.0537 228.625 38.8361C228.35 38.6249 228.298 38.2215 228.516 37.9401C228.733 37.6651 229.136 37.614 229.412 37.8316C230.211 38.4455 230.48 38.3434 230.71 38.1705C231.555 37.5311 232.04 36.0085 232.15 33.6409C232.214 32.2594 232.066 30.5446 231.03 30.2314C230.665 30.1165 230.473 30.2123 230.345 30.3015C229.63 30.8261 229.348 32.7073 229.341 33.7756H228.062V33.7692C228.062 33.424 228.132 30.3398 229.584 29.2716C230.102 28.8944 230.736 28.798 231.408 29.0029C232.872 29.4509 233.551 31.0309 233.423 33.699Z" fill="#41277A"/>
<path d="M246.397 33.699C246.269 36.5075 245.629 38.3051 244.446 39.194C244.075 39.4755 243.697 39.5783 243.339 39.5783C242.552 39.5783 241.874 39.0537 241.599 38.8361C241.317 38.6249 241.266 38.2215 241.484 37.9401C241.701 37.6651 242.104 37.614 242.379 37.8316C243.179 38.4455 243.448 38.3434 243.678 38.1705C244.184 37.787 244.56 37.0958 244.798 36.0914C244.957 35.445 245.06 34.6773 245.111 33.7756L245.117 33.6409C245.182 32.2594 245.04 30.5446 244.004 30.2314C243.633 30.1165 243.441 30.2123 243.313 30.3015C242.604 30.8261 242.321 32.7073 242.308 33.7756H241.029V33.7692C241.036 33.424 241.099 30.3398 242.558 29.2716C243.076 28.8944 243.703 28.798 244.375 29.0029C245.84 29.4509 246.519 31.0309 246.397 33.699Z" fill="#41277A"/>
<path d="M279.29 124.659C279.29 121.898 273.257 119.661 265.815 119.661C258.373 119.661 252.341 121.898 252.341 124.659C252.341 127.419 258.373 129.657 265.815 129.657C273.257 129.657 279.29 127.419 279.29 124.659Z" fill="#634C47"/>
<path d="M279.472 125.338H251.439C250.657 125.338 250.021 125.974 250.021 126.756V137.916C250.021 138.698 250.657 139.334 251.439 139.334H279.472C280.256 139.334 280.89 138.698 280.89 137.916V126.756C280.89 125.974 280.256 125.338 279.472 125.338Z" fill="#A06352"/>
<path d="M175.781 144.132H26.1868C25.8335 144.132 25.5469 143.846 25.5469 143.492C25.5469 143.138 25.8335 142.852 26.1868 142.852H175.781C176.135 142.852 176.421 143.138 176.421 143.492C176.421 143.846 176.135 144.132 175.781 144.132Z" fill="#E5E3E1"/>
<path d="M265.456 144.132H185.592C185.239 144.132 184.953 143.846 184.953 143.492C184.953 143.138 185.239 142.852 185.592 142.852H265.456C265.809 142.852 266.096 143.138 266.096 143.492C266.096 143.846 265.809 144.132 265.456 144.132Z" fill="#E5E3E1"/>
<path d="M237.626 149.889H78.8062C78.4524 149.889 78.166 149.603 78.166 149.25C78.166 148.896 78.4524 148.609 78.8062 148.609H237.626C237.98 148.609 238.266 148.896 238.266 149.25C238.266 149.603 237.98 149.889 237.626 149.889Z" fill="#E5E3E1"/>
<path d="M62.01 81.7122H30.8369C30.8369 81.7122 34.1883 76.7653 39.6059 80.5242C46.8135 71.9336 54.7101 74.1751 54.7101 79.1143C61.964 75.1016 63.0195 79.3256 62.01 81.7122Z" fill="#E5E3E1"/>
</g>
</g>
</g>
<defs>
<clipPath id="clip0_8003_367">
<rect width="316" height="150" fill="white" transform="translate(0 0.480103)"/>
</clipPath>
<clipPath id="clip1_8003_367">
<rect width="291.367" height="150" fill="white" transform="translate(12.3164 0.480103)"/>
</clipPath>
</defs>
</svg>
