<svg xmlns="http://www.w3.org/2000/svg" width="49" height="48" fill="none" viewBox="0 0 49 48"><g clip-path="url(#clip0)"><path fill="url(#paint0_linear)" d="M32.102 4.67519C32.102 3.35675 30.6258 3.35673 29.9697 3.52154C30.8882 2.79639 31.9653 2.9722 32.348 3.19194L41.218 7.5412C42.0632 7.95562 42.5994 8.8179 42.5994 9.76285V38.3747C42.5994 39.3323 42.049 40.2037 41.1866 40.6115L32.8401 44.558C32.266 44.8052 31.0195 45.415 29.9697 44.558C31.2819 44.8052 31.9927 43.8713 32.102 43.2396V4.67519Z"/><path fill="url(#paint1_linear)" d="M30.0764 3.49737C30.7728 3.35976 32.1023 3.42358 32.1023 4.67479V14.5233L5.20999 34.8675C4.73994 35.2231 4.07841 35.1641 3.67804 34.7309L0.906408 31.7317C0.472206 31.2619 0.502586 30.5265 0.974045 30.0944L29.97 3.52114L30.0764 3.49737Z"/><path fill="url(#paint2_linear)" d="M32.1023 33.5557L5.20999 13.2115C4.73994 12.8559 4.07841 12.9149 3.67804 13.3482L0.906408 16.3473C0.472206 16.8171 0.502586 17.5525 0.974045 17.9846L29.97 44.5579C31.2822 44.8051 31.9929 43.8712 32.1023 43.2394V33.5557Z"/></g><defs><linearGradient id="paint0_linear" x1="36.285" x2="36.285" y1="3" y2="45" gradientUnits="userSpaceOnUse"><stop stop-color="#32B5F1"/><stop offset="1" stop-color="#2B9FED"/></linearGradient><linearGradient id="paint1_linear" x1="32.102" x2="2.132" y1="8.3" y2="33.457" gradientUnits="userSpaceOnUse"><stop stop-color="#0F6FB3"/><stop offset=".271" stop-color="#1279B7"/><stop offset=".421" stop-color="#1176B5"/><stop offset=".618" stop-color="#0E69AC"/><stop offset=".855" stop-color="#0F70AF"/><stop offset="1" stop-color="#0F6DAD"/></linearGradient><linearGradient id="paint2_linear" x1="2.332" x2="32.218" y1="14.975" y2="39.721" gradientUnits="userSpaceOnUse"><stop stop-color="#1791D2"/><stop offset="1" stop-color="#1173C5"/></linearGradient><clipPath id="clip0"><rect width="48" height="48" fill="#fff" transform="translate(0.599609)"/></clipPath></defs></svg>