<svg xmlns="http://www.w3.org/2000/svg" width="283" height="134" fill="none" viewBox="0 0 283 134"><rect width="283" height="132" fill="#fff" fill-opacity=".15" rx="4"/><rect width="281" height="130" x="1" y="1" stroke="#BBC7CD" stroke-opacity=".5" stroke-width="2" rx="3"/><g filter="url(#filter0_d)"><rect width="155" height="128" x="64" y="2" fill="#212121"/></g><rect width="115" height="3" x="80" y="44" fill="#BBC7CD" rx="1.5"/><rect width="123" height="3" x="80" y="54" fill="#BBC7CD" rx="1.5"/><rect width="112" height="3" x="80" y="63" fill="#BBC7CD" rx="1.5"/><rect width="118" height="3" x="80" y="72" fill="#BBC7CD" rx="1.5"/><rect width="107" height="3" x="80" y="81" fill="#BBC7CD" rx="1.5"/><rect width="118" height="3" x="80" y="91" fill="#BBC7CD" rx="1.5"/><rect width="121" height="3" x="80" y="100" fill="#BBC7CD" rx="1.5"/><rect width="114" height="3" x="80" y="109" fill="#BBC7CD" rx="1.5"/><rect width="72" height="6" x="80" y="26" fill="#fff" rx="3"/><defs><filter id="filter0_d" width="159" height="132" x="62" y="2" color-interpolation-filters="sRGB" filterUnits="userSpaceOnUse"><feFlood flood-opacity="0" result="BackgroundImageFix"/><feColorMatrix in="SourceAlpha" type="matrix" values="0 0 0 0 0 0 0 0 0 0 0 0 0 0 0 0 0 0 127 0"/><feOffset dy="2"/><feGaussianBlur stdDeviation="1"/><feColorMatrix type="matrix" values="0 0 0 0 0 0 0 0 0 0 0 0 0 0 0 0 0 0 0.03 0"/><feBlend in2="BackgroundImageFix" mode="normal" result="effect1_dropShadow"/><feBlend in="SourceGraphic" in2="effect1_dropShadow" mode="normal" result="shape"/></filter></defs></svg>