<svg xmlns="http://www.w3.org/2000/svg" width="283" height="133" fill="none" viewBox="0 0 283 133"><rect width="281" height="130" x="1" y="1.443" fill="#ECEFF1" stroke="#BBC7CD" stroke-width="2" rx="3"/><g filter="url(#filter0_d)"><rect width="171" height="24" x="56" y="54.443" fill="#fff" rx="3"/></g><path fill="#ECEFF1" d="M142 54.4434H184L189 66.4434L184 78.4434H142L146 66.4434L142 54.4434Z"/><rect width="20" height="3" x="198" y="65.443" fill="#BBC7CD" rx="1.5"/><rect width="22" height="3" x="68" y="65.443" fill="#BBC7CD" rx="1.5"/><rect width="22" height="3" x="154" y="65.443" fill="#263238" rx="1.5"/><rect width="22" height="3" x="111" y="65.443" fill="#BBC7CD" rx="1.5"/><path fill="#BBC7CD" d="M98 54.4434H99L103 66.4434L99 78.4434H98L102 66.4434L98 54.4434Z" opacity=".5"/><path fill="#BBC7CD" d="M141 54.4434H142L146 66.4434L142 78.4434H141L145 66.4434L141 54.4434Z" opacity=".5"/><path fill="#BBC7CD" d="M184 54.4434H185L190 66.4434L185 78.4434H184L189 66.4434L184 54.4434Z" opacity=".5"/><defs><filter id="filter0_d" width="175" height="28" x="54" y="54.443" color-interpolation-filters="sRGB" filterUnits="userSpaceOnUse"><feFlood flood-opacity="0" result="BackgroundImageFix"/><feColorMatrix in="SourceAlpha" type="matrix" values="0 0 0 0 0 0 0 0 0 0 0 0 0 0 0 0 0 0 127 0"/><feOffset dy="2"/><feGaussianBlur stdDeviation="1"/><feColorMatrix type="matrix" values="0 0 0 0 0 0 0 0 0 0 0 0 0 0 0 0 0 0 0.03 0"/><feBlend in2="BackgroundImageFix" mode="normal" result="effect1_dropShadow"/><feBlend in="SourceGraphic" in2="effect1_dropShadow" mode="normal" result="shape"/></filter></defs></svg>