<svg xmlns="http://www.w3.org/2000/svg" width="283" height="132" fill="none" viewBox="0 0 283 132"><rect width="281" height="130" x="1" y="1" fill="#F5F7F8" rx="3"/><g filter="url(#filter0_d_3726_32622)"><g clip-path="url(#clip0_3726_32622)"><rect width="159" height="94" x="62" y="19" fill="#D9E0E3" rx="4"/><rect width="151" height="11" x="66" y="23" fill="#F7F9F9" rx="3"/><rect width="7" height="7" x="68" y="25" fill="#BBC7CD" rx="2"/><rect width="24" height="3" x="78" y="27" fill="#BBC7CD" rx="1.5"/><rect width="7" height="7" x="68" y="39" fill="#9CAEB7" rx="2"/><rect width="24" height="3" x="78" y="41" fill="#9CAEB7" rx="1.5"/><rect width="3" height="3" x="211" y="41" fill="#9CAEB7" rx="1.5"/><rect width="3" height="3" x="206" y="41" fill="#9CAEB7" rx="1.5"/><rect width="151" height="11" x="66" y="49" fill="#BBC7CD" rx="4"/><rect width="7" height="7" x="68.037" y="51" fill="#607D8B" rx="2"/><rect width="24" height="3" x="78.037" y="53" fill="#607D8B" rx="1.5"/><rect width="3" height="3" x="211.037" y="53" fill="#607D8B" rx="1.5"/><rect width="3" height="3" x="206.037" y="53" fill="#607D8B" rx="1.5"/><rect width="7" height="7" x="68" y="63" fill="#9CAEB7" rx="2"/><rect width="24" height="3" x="78" y="65" fill="#9CAEB7" rx="1.5"/><rect width="3" height="3" x="211" y="65" fill="#9CAEB7" rx="1.5"/><rect width="3" height="3" x="206" y="65" fill="#9CAEB7" rx="1.5"/><rect width="7" height="7" x="68" y="75" fill="#9CAEB7" rx="2"/><rect width="24" height="3" x="78" y="77" fill="#9CAEB7" rx="1.5"/><rect width="3" height="3" x="211" y="77" fill="#9CAEB7" rx="1.5"/><rect width="3" height="3" x="206" y="77" fill="#9CAEB7" rx="1.5"/><rect width="7" height="7" x="68" y="87" fill="#9CAEB7" rx="2"/><rect width="24" height="3" x="78" y="89" fill="#9CAEB7" rx="1.5"/><rect width="3" height="3" x="211" y="89" fill="#9CAEB7" rx="1.5"/><rect width="3" height="3" x="206" y="89" fill="#9CAEB7" rx="1.5"/><rect width="7" height="7" x="68" y="99" fill="#9CAEB7" rx="2"/><rect width="24" height="3" x="78" y="101" fill="#9CAEB7" rx="1.5"/><rect width="3" height="3" x="211" y="101" fill="#9CAEB7" rx="1.5"/><rect width="3" height="3" x="206" y="101" fill="#9CAEB7" rx="1.5"/><rect width="7" height="7" x="68" y="111" fill="#9CAEB7" rx="2"/></g></g><rect width="281" height="130" x="1" y="1" stroke="#BBC7CD" stroke-width="2" rx="3"/><defs><filter id="filter0_d_3726_32622" width="165" height="100" x="59" y="18" color-interpolation-filters="sRGB" filterUnits="userSpaceOnUse"><feFlood flood-opacity="0" result="BackgroundImageFix"/><feColorMatrix in="SourceAlpha" result="hardAlpha" type="matrix" values="0 0 0 0 0 0 0 0 0 0 0 0 0 0 0 0 0 0 127 0"/><feOffset dy="2"/><feGaussianBlur stdDeviation="1.5"/><feComposite in2="hardAlpha" operator="out"/><feColorMatrix type="matrix" values="0 0 0 0 0 0 0 0 0 0 0 0 0 0 0 0 0 0 0.15 0"/><feBlend in2="BackgroundImageFix" mode="normal" result="effect1_dropShadow_3726_32622"/><feBlend in="SourceGraphic" in2="effect1_dropShadow_3726_32622" mode="normal" result="shape"/></filter><clipPath id="clip0_3726_32622"><rect width="159" height="94" x="62" y="19" fill="#fff" rx="4"/></clipPath></defs></svg>