<svg xmlns="http://www.w3.org/2000/svg" width="283" height="132" fill="none" viewBox="0 0 283 132"><rect width="281" height="130" x="1" y="1" fill="#ECEFF1" stroke="#BBC7CD" stroke-width="2" rx="3"/><g filter="url(#filter0_d)"><rect width="50" height="68" x="53" y="32" fill="#fff"/></g><rect width="36" height="10" x="60" y="84" fill="#BBC7CD" rx="5"/><rect width="20" height="2" x="68" y="88" fill="#263238" rx="1"/><rect width="22" height="3" x="67" y="55" fill="#BBC7CD" rx="1.5"/><rect width="3" height="3" x="61" y="55" fill="#00BCD4" rx="1.5"/><rect width="34" height="4" x="61" y="40" fill="#263238" rx="2"/><g filter="url(#filter1_d)"><rect width="62" height="84.32" x="111" y="22" fill="#fff"/></g><rect width="44.64" height="12.4" x="119.68" y="86.48" fill="#BBC7CD" rx="6.2"/><rect width="24.8" height="2.48" x="129.6" y="91.44" fill="#263238" rx="1.24"/><rect width="27.28" height="3.72" x="128.36" y="50.52" fill="#BBC7CD" rx="1.86"/><rect width="34.72" height="3.72" x="128.36" y="59.2" fill="#BBC7CD" rx="1.86"/><rect width="3.72" height="3.72" x="120.92" y="50.52" fill="#00BCD4" rx="1.86"/><rect width="3.72" height="3.72" x="120.92" y="59.2" fill="#00BCD4" rx="1.86"/><rect width="42.16" height="4.96" x="120.92" y="31.92" fill="#263238" rx="2.48"/><g filter="url(#filter2_d)"><rect width="50" height="68" x="181" y="32" fill="#fff"/></g><rect width="36" height="10" x="188" y="84" fill="#BBC7CD" rx="5"/><rect width="20" height="2" x="196" y="88" fill="#263238" rx="1"/><rect width="22" height="3" x="195" y="55" fill="#BBC7CD" rx="1.5"/><rect width="28" height="3" x="195" y="62" fill="#BBC7CD" rx="1.5"/><rect width="19" height="3" x="195" y="69" fill="#BBC7CD" rx="1.5"/><rect width="3" height="3" x="189" y="55" fill="#00BCD4" rx="1.5"/><rect width="3" height="3" x="189" y="62" fill="#00BCD4" rx="1.5"/><rect width="3" height="3" x="189" y="69" fill="#00BCD4" rx="1.5"/><rect width="34" height="4" x="189" y="40" fill="#263238" rx="2"/><defs><filter id="filter0_d" width="54" height="72" x="51" y="32" color-interpolation-filters="sRGB" filterUnits="userSpaceOnUse"><feFlood flood-opacity="0" result="BackgroundImageFix"/><feColorMatrix in="SourceAlpha" type="matrix" values="0 0 0 0 0 0 0 0 0 0 0 0 0 0 0 0 0 0 127 0"/><feOffset dy="2"/><feGaussianBlur stdDeviation="1"/><feColorMatrix type="matrix" values="0 0 0 0 0 0 0 0 0 0 0 0 0 0 0 0 0 0 0.03 0"/><feBlend in2="BackgroundImageFix" mode="normal" result="effect1_dropShadow"/><feBlend in="SourceGraphic" in2="effect1_dropShadow" mode="normal" result="shape"/></filter><filter id="filter1_d" width="66" height="88.32" x="109" y="22" color-interpolation-filters="sRGB" filterUnits="userSpaceOnUse"><feFlood flood-opacity="0" result="BackgroundImageFix"/><feColorMatrix in="SourceAlpha" type="matrix" values="0 0 0 0 0 0 0 0 0 0 0 0 0 0 0 0 0 0 127 0"/><feOffset dy="2"/><feGaussianBlur stdDeviation="1"/><feColorMatrix type="matrix" values="0 0 0 0 0 0 0 0 0 0 0 0 0 0 0 0 0 0 0.03 0"/><feBlend in2="BackgroundImageFix" mode="normal" result="effect1_dropShadow"/><feBlend in="SourceGraphic" in2="effect1_dropShadow" mode="normal" result="shape"/></filter><filter id="filter2_d" width="54" height="72" x="179" y="32" color-interpolation-filters="sRGB" filterUnits="userSpaceOnUse"><feFlood flood-opacity="0" result="BackgroundImageFix"/><feColorMatrix in="SourceAlpha" type="matrix" values="0 0 0 0 0 0 0 0 0 0 0 0 0 0 0 0 0 0 127 0"/><feOffset dy="2"/><feGaussianBlur stdDeviation="1"/><feColorMatrix type="matrix" values="0 0 0 0 0 0 0 0 0 0 0 0 0 0 0 0 0 0 0.03 0"/><feBlend in2="BackgroundImageFix" mode="normal" result="effect1_dropShadow"/><feBlend in="SourceGraphic" in2="effect1_dropShadow" mode="normal" result="shape"/></filter></defs></svg>