<svg xmlns="http://www.w3.org/2000/svg" width="283" height="133" fill="none" viewBox="0 0 283 133"><rect width="281" height="130" x="1" y="1.904" fill="#ECEFF1" stroke="#BBC7CD" stroke-width="2" rx="3"/><g filter="url(#filter0_d)"><rect width="187" height="81" x="48" y="24.904" fill="#fff" rx="3"/></g><rect width="33" height="3" x="60" y="36.904" fill="#263238" rx="1.5"/><rect width="55" height="3" x="60" y="45.904" fill="#BBC7CD" rx="1.5"/><rect width="9" height="9" x="213.5" y="37.404" fill="#BBC7CD" stroke="#fff" rx="4.5"/><rect width="9" height="9" x="205.5" y="37.404" fill="#BBC7CD" stroke="#fff" rx="4.5"/><rect width="9" height="9" x="197.5" y="37.404" fill="#BBC7CD" stroke="#fff" rx="4.5"/><rect width="186.5" height=".5" x="48.25" y="55.154" fill="#D9E0E3" stroke="#F7F9F9" stroke-width=".5"/><rect width="25" height="3" x="60" y="61.904" fill="#263238" rx="1.5"/><rect width="67" height="3" x="60" y="70.904" fill="#BBC7CD" rx="1.5"/><rect width="9" height="9" x="213.5" y="62.404" fill="#BBC7CD" stroke="#fff" rx="4.5"/><rect width="9" height="9" x="205.5" y="62.404" fill="#BBC7CD" stroke="#fff" rx="4.5"/><rect width="186.5" height=".5" x="48.25" y="80.154" fill="#D9E0E3" stroke="#F7F9F9" stroke-width=".5"/><rect width="45" height="3" x="60" y="86.904" fill="#263238" rx="1.5"/><rect width="49" height="3" x="60" y="95.904" fill="#BBC7CD" rx="1.5"/><rect width="9" height="9" x="213.5" y="87.404" fill="#BBC7CD" stroke="#fff" rx="4.5"/><defs><filter id="filter0_d" width="191" height="85" x="46" y="24.904" color-interpolation-filters="sRGB" filterUnits="userSpaceOnUse"><feFlood flood-opacity="0" result="BackgroundImageFix"/><feColorMatrix in="SourceAlpha" type="matrix" values="0 0 0 0 0 0 0 0 0 0 0 0 0 0 0 0 0 0 127 0"/><feOffset dy="2"/><feGaussianBlur stdDeviation="1"/><feColorMatrix type="matrix" values="0 0 0 0 0 0 0 0 0 0 0 0 0 0 0 0 0 0 0.03 0"/><feBlend in2="BackgroundImageFix" mode="normal" result="effect1_dropShadow"/><feBlend in="SourceGraphic" in2="effect1_dropShadow" mode="normal" result="shape"/></filter></defs></svg>