<svg xmlns="http://www.w3.org/2000/svg" width="283" height="135" fill="none" viewBox="0 0 283 135"><rect width="283" height="132" y=".732" fill="#fff" fill-opacity=".15" rx="4"/><rect width="281" height="130" x="1" y="1.732" stroke="#BBC7CD" stroke-opacity=".5" stroke-width="2" rx="3"/><g filter="url(#filter0_d)"><path fill="#212121" d="M16 50.7322C16 49.0753 17.3431 47.7322 19 47.7322H264C265.657 47.7322 267 49.0753 267 50.7322V130.732H16V50.7322Z"/></g><g filter="url(#filter1_d)"><rect width="279" height="32" x="2" y="2.732" fill="#212121"/></g><rect width="38" height="10" x="229" y="13.732" fill="#BBC7CD" rx="4"/><rect width="22" height="2" x="237" y="17.732" fill="#263238" rx="1"/><rect width="120" height="3" x="16" y="11.732" fill="#fff" rx="1.5"/><rect width="87" height="3" x="16" y="21.732" fill="#BBC7CD" rx="1.5"/><defs><filter id="filter0_d" width="255" height="87" x="14" y="47.732" color-interpolation-filters="sRGB" filterUnits="userSpaceOnUse"><feFlood flood-opacity="0" result="BackgroundImageFix"/><feColorMatrix in="SourceAlpha" type="matrix" values="0 0 0 0 0 0 0 0 0 0 0 0 0 0 0 0 0 0 127 0"/><feOffset dy="2"/><feGaussianBlur stdDeviation="1"/><feColorMatrix type="matrix" values="0 0 0 0 0 0 0 0 0 0 0 0 0 0 0 0 0 0 0.03 0"/><feBlend in2="BackgroundImageFix" mode="normal" result="effect1_dropShadow"/><feBlend in="SourceGraphic" in2="effect1_dropShadow" mode="normal" result="shape"/></filter><filter id="filter1_d" width="283" height="36" x="0" y="2.732" color-interpolation-filters="sRGB" filterUnits="userSpaceOnUse"><feFlood flood-opacity="0" result="BackgroundImageFix"/><feColorMatrix in="SourceAlpha" type="matrix" values="0 0 0 0 0 0 0 0 0 0 0 0 0 0 0 0 0 0 127 0"/><feOffset dy="2"/><feGaussianBlur stdDeviation="1"/><feColorMatrix type="matrix" values="0 0 0 0 0 0 0 0 0 0 0 0 0 0 0 0 0 0 0.03 0"/><feBlend in2="BackgroundImageFix" mode="normal" result="effect1_dropShadow"/><feBlend in="SourceGraphic" in2="effect1_dropShadow" mode="normal" result="shape"/></filter></defs></svg>