<svg xmlns="http://www.w3.org/2000/svg" width="283" height="134" fill="none" viewBox="0 0 283 134"><rect width="283" height="132" fill="#fff" fill-opacity=".15" rx="4"/><rect width="281" height="130" x="1" y="1" stroke="#BBC7CD" stroke-opacity=".5" stroke-width="2" rx="3"/><g filter="url(#filter0_d)"><rect width="279" height="55" x="2" y="75" fill="#212121"/></g><rect width="10" height="10" x="211" y="97" fill="#BBC7CD" rx="5"/><rect width="10" height="10" x="229" y="97" fill="#BBC7CD" rx="5"/><rect width="10" height="10" x="247" y="97" fill="#BBC7CD" rx="5"/><rect width="18" height="3" x="26" y="98" fill="#BBC7CD" rx="1.5"/><rect width="22" height="3" x="26" y="105" fill="#BBC7CD" rx="1.5"/><rect width="14" height="3" x="26" y="113" fill="#BBC7CD" rx="1.5"/><rect width="28" height="4" x="26" y="88" fill="#fff" rx="2"/><rect width="22" height="3" x="82" y="98" fill="#BBC7CD" rx="1.5"/><rect width="16" height="3" x="82" y="105" fill="#BBC7CD" rx="1.5"/><rect width="20" height="3" x="82" y="113" fill="#BBC7CD" rx="1.5"/><rect width="30" height="4" x="82" y="88" fill="#fff" rx="2"/><rect width="27" height="3" x="138" y="98" fill="#BBC7CD" rx="1.5"/><rect width="29" height="3" x="138" y="105" fill="#BBC7CD" rx="1.5"/><rect width="16" height="3" x="138" y="113" fill="#BBC7CD" rx="1.5"/><rect width="31" height="4" x="138" y="88" fill="#fff" rx="2"/><defs><filter id="filter0_d" width="283" height="59" x="0" y="75" color-interpolation-filters="sRGB" filterUnits="userSpaceOnUse"><feFlood flood-opacity="0" result="BackgroundImageFix"/><feColorMatrix in="SourceAlpha" type="matrix" values="0 0 0 0 0 0 0 0 0 0 0 0 0 0 0 0 0 0 127 0"/><feOffset dy="2"/><feGaussianBlur stdDeviation="1"/><feColorMatrix type="matrix" values="0 0 0 0 0 0 0 0 0 0 0 0 0 0 0 0 0 0 0.03 0"/><feBlend in2="BackgroundImageFix" mode="normal" result="effect1_dropShadow"/><feBlend in="SourceGraphic" in2="effect1_dropShadow" mode="normal" result="shape"/></filter></defs></svg>